<svg width="16" height="16" viewBox="0 0 16 16" fill="none" xmlns="http://www.w3.org/2000/svg"
    id='error'>
    <rect width="16" height="16" rx="8" fill="#FA4035" />
    <path fill-rule="evenodd" clip-rule="evenodd"
        d="M12.3525 5.06068C12.743 4.67016 12.743 4.03699 12.3525 3.64647C11.9619 3.25595 11.3288 3.25595 10.9383 3.64647L7.9986 6.58612L5.05895 3.64647C4.66843 3.25595 4.03526 3.25595 3.64474 3.64647C3.25421 4.03699 3.25421 4.67016 3.64474 5.06068L6.58439 8.00033L3.64446 10.9403C3.25393 11.3308 3.25393 11.964 3.64446 12.3545C4.03498 12.745 4.66815 12.745 5.05867 12.3545L7.9986 9.41455L10.9385 12.3545C11.3291 12.745 11.9622 12.745 12.3527 12.3545C12.7433 11.964 12.7433 11.3308 12.3527 10.9403L9.41282 8.00033L12.3525 5.06068Z"
        fill="#484848" />
</svg>